# xmcd
#
# Track frame offsets:
#	150
#	15793
#	33657
#	56612
#	77169
#	105417
#
# Disc length: 1762 seconds
#
# Revision: 1
# Processed by: cddbd v1.5.2PL0 Copyright (c) Steve Scherf et al.
# Submitted via: audiograbber 1.83.01
#
DISCID=3a06e006
DTITLE=Bluespiraten - Bluespiraten
DYEAR=0
DGENRE=Blues
TTITLE0=Die unendliche Geschichte vom Delirium
TTITLE1=Der Sinn des Lebens
TTITLE2=Kneipenblues
TTITLE3=Die lausige Ratte
TTITLE4=Ich bin geil
TTITLE5=Sozialamtblues
EXTD=
EXTT0=
EXTT1=
EXTT2=
EXTT3=
EXTT4=
EXTT5=
PLAYORDER=
